<svg width="32" height="25" viewBox="0 0 32 25" fill="none" xmlns="http://www.w3.org/2000/svg">
<path d="M1 12.4706C3.00272 5.82256 8.96217 1 16 1C23.0394 1 28.9973 5.82256 31 12.4706C28.9973 19.1186 23.0394 23.9412 16 23.9412C8.96217 23.9412 3.00272 19.1186 1 12.4706Z" stroke="#939292" stroke-linecap="round" stroke-linejoin="round"/>
<path d="M20.7152 12.4707C20.7152 13.7744 20.2183 15.0248 19.3339 15.9468C18.4495 16.8687 17.25 17.3866 15.9992 17.3866C14.7484 17.3866 13.5489 16.8687 12.6645 15.9468C11.7801 15.0248 11.2832 13.7744 11.2832 12.4707C11.2832 11.1669 11.7801 9.91646 12.6645 8.99454C13.5489 8.07262 14.7484 7.55469 15.9992 7.55469C17.25 7.55469 18.4495 8.07262 19.3339 8.99454C20.2183 9.91646 20.7152 11.1669 20.7152 12.4707Z" stroke="#939292" stroke-linecap="round" stroke-linejoin="round"/>
</svg>
