<svg width="32" height="25" viewBox="0 0 32 25" fill="none" xmlns="http://www.w3.org/2000/svg">
<path d="M1 12.4118C3.00272 5.76373 8.96217 0.941162 16 0.941162C23.0394 0.941162 28.9973 5.76373 31 12.4118C28.9973 19.0598 23.0394 23.8823 16 23.8823C8.96217 23.8823 3.00272 19.0598 1 12.4118Z" stroke="#939292" stroke-linecap="round" stroke-linejoin="round"/>
<path d="M20.7152 12.4118C20.7152 13.7156 20.2183 14.966 19.3339 15.8879C18.4495 16.8099 17.25 17.3278 15.9992 17.3278C14.7484 17.3278 13.5489 16.8099 12.6645 15.8879C11.7801 14.966 11.2832 13.7156 11.2832 12.4118C11.2832 11.108 11.7801 9.85762 12.6645 8.9357C13.5489 8.01378 14.7484 7.49585 15.9992 7.49585C17.25 7.49585 18.4495 8.01378 19.3339 8.9357C20.2183 9.85762 20.7152 11.108 20.7152 12.4118Z" stroke="#939292" stroke-linecap="round" stroke-linejoin="round"/>
<line x1="31.3042" y1="1.3968" x2="1.30422" y2="24.3968" stroke="#939292"/>
</svg>
